<?xml version="1.0" encoding="UTF-8"?>
<svg version="1.1" xmlns="http://www.w3.org/2000/svg" width="1500" height="406">
<path d="M0 0 C7.59 0 15.18 0 23 0 C23 16.17 23 32.34 23 49 C43.79 49 64.58 49 86 49 C86 32.83 86 16.66 86 0 C93.59 0 101.18 0 109 0 C109 40.59 109 81.18 109 123 C101.41 123 93.82 123 86 123 C86 105.51 86 88.02 86 70 C65.21 70 44.42 70 23 70 C23 87.49 23 104.98 23 123 C15.41 123 7.82 123 0 123 C0 82.41 0 41.82 0 0 Z " fill="#FE0000" transform="translate(1266,146)"/>
<path d="M0 0 C7.59 0 15.18 0 23 0 C23 16.17 23 32.34 23 49 C43.79 48.67 64.58 48.34 86 48 C86 32.16 86 16.32 86 0 C93.59 0 101.18 0 109 0 C109 40.59 109 81.18 109 123 C101.41 123 93.82 123 86 123 C86 105.84 86 88.68 86 71 C65.21 70.67 44.42 70.34 23 70 C23 87.49 23 104.98 23 123 C15.41 123 7.82 123 0 123 C0 82.41 0 41.82 0 0 Z " fill="#F3F3F3" transform="translate(140,146)"/>
<path d="M0 0 C28.71 0 57.42 0 87 0 C87 7.26 87 14.52 87 22 C66.21 22 45.42 22 24 22 C24 30.91 24 39.82 24 49 C43.47 49 62.94 49 83 49 C83 55.93 83 62.86 83 70 C63.53 70 44.06 70 24 70 C24 80.23 24 90.46 24 101 C44.79 101 65.58 101 87 101 C87 108.26 87 115.52 87 123 C58.29 123 29.58 123 0 123 C0 82.41 0 41.82 0 0 Z " fill="#F3F3F3" transform="translate(298,146)"/>
<path d="M0 0 C28.71 0 57.42 0 87 0 C87 7.26 87 14.52 87 22 C65.88 22 44.76 22 23 22 C23 30.91 23 39.82 23 49 C42.47 49 61.94 49 82 49 C82 55.93 82 62.86 82 70 C62.53 70 43.06 70 23 70 C23 80.23 23 90.46 23 101 C44.12 101 65.24 101 87 101 C87 108.26 87 115.52 87 123 C58.29 123 29.58 123 0 123 C0 82.41 0 41.82 0 0 Z " fill="#FC0101" transform="translate(988,146)"/>
<path d="M0 0 C1.5631897 0.00785522 1.5631897 0.00785522 3.15795898 0.01586914 C4.28266602 0.0190918 5.40737305 0.02231445 6.56616211 0.02563477 C7.75016602 0.03401367 8.93416992 0.04239258 10.15405273 0.05102539 C11.34192383 0.05553711 12.52979492 0.06004883 13.75366211 0.06469727 C16.69967499 0.07652864 19.64558954 0.09301252 22.59155273 0.11352539 C29.094127 15.89691004 35.44826034 31.73584019 41.71655273 47.61352539 C42.07161896 48.51289825 42.42668518 49.41227112 42.79251099 50.33889771 C45.01002427 55.95715966 47.22563769 61.57616978 49.44091797 67.1953125 C52.57186476 75.13594629 55.70574627 83.07542024 58.8414917 91.01416016 C59.94411611 93.80670167 61.04546447 96.59974406 62.14672852 99.39282227 C62.82359024 101.10703821 63.50050785 102.82123209 64.17749023 104.53540039 C64.4798761 105.30329895 64.78226196 106.07119751 65.09381104 106.86236572 C66.437154 110.2604225 67.81320644 113.62635408 69.30493164 116.9621582 C70.59155273 120.11352539 70.59155273 120.11352539 70.59155273 123.11352539 C62.67155273 123.11352539 54.75155273 123.11352539 46.59155273 123.11352539 C43.13448196 115.77778984 39.82116141 108.41652248 36.71655273 100.92602539 C36.40645264 100.18360596 36.09635254 99.44118652 35.77685547 98.67626953 C33.59155273 93.3564174 33.59155273 93.3564174 33.59155273 91.11352539 C17.42155273 91.11352539 1.25155273 91.11352539 -15.40844727 91.11352539 C-15.73844727 92.76352539 -16.06844727 94.41352539 -16.40844727 96.11352539 C-17.18644393 98.17789219 -18.01407796 100.22390061 -18.87719727 102.25415039 C-19.36575195 103.40657227 -19.85430664 104.55899414 -20.35766602 105.74633789 C-20.86942383 106.94000977 -21.38118164 108.13368164 -21.90844727 109.36352539 C-22.42020508 110.57266602 -22.93196289 111.78180664 -23.45922852 113.02758789 C-27.26904536 121.97412348 -27.26904536 121.97412348 -28.40844727 123.11352539 C-30.04317608 123.20052881 -31.68158782 123.22053602 -33.31860352 123.21118164 C-34.30795898 123.20795898 -35.29731445 123.20473633 -36.31665039 123.20141602 C-37.35756836 123.19303711 -38.39848633 123.1846582 -39.47094727 123.17602539 C-40.51573242 123.17151367 -41.56051758 123.16700195 -42.63696289 123.16235352 C-45.22751386 123.15052452 -47.81795285 123.13404228 -50.40844727 123.11352539 C-49.77064365 117.44975979 -47.80077521 112.55580656 -45.70922852 107.30493164 C-45.32615036 106.3299472 -44.9430722 105.35496277 -44.54838562 104.35043335 C-43.27844025 101.12328291 -41.99985009 97.89963543 -40.72094727 94.67602539 C-39.83060725 92.41974077 -38.94063954 90.1633092 -38.05102539 87.90673828 C-28.28449631 63.16479962 -18.40447421 38.46674307 -8.47875977 13.78829956 C-7.73845148 11.93822541 -7.00448383 10.08560605 -6.27563477 8.23098755 C-5.91727539 7.32154388 -5.55891602 6.41210022 -5.18969727 5.47509766 C-4.8706543 4.65977066 -4.55161133 3.84444366 -4.22290039 3.00440979 C-2.98951864 0.14091497 -2.98951864 0.14091497 0 0 Z M8.59155273 29.11352539 C6.45320033 34.6485975 4.31701205 40.18449789 2.18286133 45.72119141 C1.45592328 47.60618892 0.72838514 49.49095512 0.00024414 51.37548828 C-1.0438009 54.07793141 -2.08571369 56.781188 -3.12719727 59.48461914 C-3.45530396 60.33253525 -3.78341064 61.18045135 -4.12145996 62.05406189 C-5.69992306 65.49411573 -5.69992306 65.49411573 -6.40844727 69.11352539 C3.82155273 69.11352539 14.05155273 69.11352539 24.59155273 69.11352539 C22.7177571 63.49213848 20.82719033 57.96060064 18.67358398 52.45336914 C18.28042244 51.44035484 18.28042244 51.44035484 17.87931824 50.40687561 C17.05623421 48.28747306 16.23020472 46.16923364 15.40405273 44.05102539 C14.83940265 42.59862799 14.27494794 41.14615462 13.71069336 39.69360352 C12.33989735 36.1660309 10.96646183 32.6394968 9.59155273 29.11352539 C9.26155273 29.11352539 8.93155273 29.11352539 8.59155273 29.11352539 Z " fill="#F4F4F4" transform="translate(467.408447265625,145.886474609375)"/>
<path d="M0 0 C-1.92556636 6.85618326 -4.2472483 13.43252132 -7 20 C-11.34999255 19.46539548 -15.40938554 18.66219454 -19.64355469 17.48828125 C-36.85840267 12.849402 -54.13232054 13.11396697 -69.875 22.125 C-79.40570495 28.67302436 -83.73908114 37.85689991 -86 49 C-87.43600883 61.20607508 -83.50591763 71.43766658 -76 81 C-67.82079916 89.63450426 -55.18554378 93.75695988 -43.48046875 94.23828125 C-31.89949796 94.47644185 -22.0917974 93.31954033 -11 90 C-9.33799081 89.64417091 -7.67281208 89.30097945 -6 89 C1 102.51724138 1 102.51724138 1 108 C-19.77072897 117.76504406 -45.54450641 121.66353603 -67.75390625 114.3203125 C-86.03783535 106.88352786 -98.81126088 96.41109862 -106.78125 78.0546875 C-112.8796894 62.76949644 -112.32793211 44.76142714 -106.18359375 29.546875 C-98.73963477 13.52885107 -87.49014777 3.00299641 -71.0625 -3.3125 C-48.27354556 -11.54295019 -22.16059534 -9.55548606 0 0 Z " fill="#FE0000" transform="translate(1229,153)"/>
<path d="M0 0 C36.63 0 73.26 0 111 0 C111 7.26 111 14.52 111 22 C96.48 22 81.96 22 67 22 C67 55.33 67 88.66 67 123 C59.41 123 51.82 123 44 123 C44 89.67 44 56.34 44 22 C29.48 22 14.96 22 0 22 C0 14.74 0 7.48 0 0 Z " fill="#FC0102" transform="translate(845,146)"/>
<path d="M0 0 C7.59 0 15.18 0 23 0 C23 33.33 23 66.66 23 101 C43.13 101 63.26 101 84 101 C84 108.26 84 115.52 84 123 C56.28 123 28.56 123 0 123 C0 82.41 0 41.82 0 0 Z " fill="#F2F2F2" transform="translate(571,146)"/>
<path d="M0 0 C6.5803138 -0.09246343 13.15832062 -0.17191048 19.73876953 -0.21972656 C21.97126964 -0.23968547 24.20371855 -0.26686243 26.43603516 -0.30175781 C46.58397136 -0.60853337 62.46895033 0.83841814 77.8125 15.3125 C92.40155387 30.78731786 92.57115 48.28191672 92.25 68.375 C92.22989518 70.5755045 92.21165149 72.77602682 92.1953125 74.9765625 C92.15508693 80.31851843 92.07674132 85.65795111 92 91 C82.1 91 72.2 91 62 91 C62 70.54 62 50.08 62 29 C41.54 29 21.08 29 0 29 C0 19.43 0 9.86 0 0 Z " fill="#F4F4F4" transform="translate(670,193)"/>
<path d="M0 0 C9.9 0 19.8 0 30 0 C30 16.17 30 32.34 30 49 C20.1 49 10.2 49 0 49 C0 32.83 0 16.66 0 0 Z " fill="#FC0102" transform="translate(732,130)"/>
<path d="M0 0 C15.84 0 31.68 0 48 0 C48 9.57 48 19.14 48 29 C32.16 29 16.32 29 0 29 C0 19.43 0 9.86 0 0 Z " fill="#F60408" transform="translate(776,193)"/>
</svg>
